<svg xmlns:rdf="http://www.w3.org/1999/02/22-rdf-syntax-ns#" xmlns="http://www.w3.org/2000/svg" height="38mm" width="34mm" version="1.1" xmlns:cc="http://creativecommons.org/ns#" xmlns:dc="http://purl.org/dc/elements/1.1/" viewBox="0 0 34 38">
<g transform="translate(-64.067 -33.346)" fill="#9e1f62">
<path d="m67.418 70.817q0.4064-15.697 0.4064-19.05 0-3.3528-0.4572-17.424h3.5052q-0.4572 10.617-0.4572 17.932 0 7.3152 0.4572 18.542z"/>
<path d="m83.313 70.817q0.4064-15.697 0.4064-19.05 0-3.3528-0.4572-17.424h3.5052q-0.4572 10.617-0.4572 17.932 0 7.3152 0.4572 18.542z"/>
</g>
<g transform="translate(-64.067 -33.346)">
<g aria-label="|&gt;|&lt;" transform="translate(1.5875 -.52917)" stroke-width=".26458px" fill="#f8931f">
<path d="m91.033 65.301-11.176-11.227 11.176-11.176h4.6228l-9.4996 11.176 9.4996 11.227z"/>
<path d="m79.866 54.074-11.176 11.227h-4.6228l9.4996-11.227-9.4996-11.176h4.6228z"/>
</g>
</g>
<g>
<path d="m12.57 31.973c0.086 2.945 0.17 5.866 0.241 8.455l9.812 11.543c0.09-5.921 0.243-12.3 0.434-18.946l-1.053-1.052h-9.434zm10.223 59.088l-10.203 12.059c-0.059 2.52-0.132 5.46-0.199 8.23h9.613l1.293-1.3c-0.213-6.72-0.378-13.012-0.504-18.989z" transform="scale(.28222)" fill="#fff"/>
<path d="m78.91 54.234l-9.297 9.297c0.003 0.484 0.022 1.326 0.022 1.74 0 2.754-0.079 7.922-0.196 14.202l9.637 9.679c-0.158-7.965-0.262-15.469-0.262-22.082 0-4.05 0.037-8.357 0.096-12.836z" transform="scale(.28222)" fill="#f6ffd5"/>
</g>
</svg>
